<?xml version="1.0" encoding="UTF-8"?>
<svg version="1.1" xmlns="http://www.w3.org/2000/svg" width="500" height="500">
<path d="M0 0 C2 2 2 2 2.24050903 4.78408813 C2.2338472 6.562798 2.2338472 6.562798 2.22705078 8.37744141 C2.22734283 9.03122269 2.22763489 9.68500397 2.22793579 10.3585968 C2.22654065 12.52305296 2.2109712 14.68716636 2.1953125 16.8515625 C2.19158302 18.35085868 2.18873574 19.8501573 2.18673706 21.34945679 C2.17909548 25.29836743 2.1594426 29.24713129 2.1373291 33.19598389 C2.1168819 37.22438572 2.10773776 41.25281124 2.09765625 45.28125 C2.07619711 53.18756741 2.04205495 61.09376545 2 69 C3.24088379 68.98428955 4.48176758 68.9685791 5.76025391 68.95239258 C10.37835155 68.89795912 14.996421 68.86360108 19.61474609 68.83520508 C21.61088841 68.82014902 23.60699781 68.79969973 25.60302734 68.77368164 C28.47762185 68.73715839 31.35177772 68.72024163 34.2265625 68.70703125 C35.55815903 68.68380547 35.55815903 68.68380547 36.91665649 68.66011047 C42.83993954 68.65851344 46.98559458 69.58170172 51.73828125 73.39453125 C53.29589044 75.37650455 54.21171403 77.36580234 55.1875 79.6875 C55.53167969 80.49574219 55.87585938 81.30398437 56.23046875 82.13671875 C56.48441406 82.75160156 56.73835938 83.36648437 57 84 C59.42252676 76.85268701 60.88766812 69.64537047 62.15625 62.22265625 C62.74863615 59.00778785 63.5561591 55.89651003 64.44140625 52.75 C66.08515416 46.865058 67.28466564 40.93505619 68.4375 34.9375 C68.87134352 32.74328126 69.30624774 30.54927198 69.7421875 28.35546875 C70.34810729 25.29690702 70.9534088 22.23827483 71.55175781 19.17822266 C72.04106449 16.69897669 72.54881094 14.22429066 73.0625 11.75 C73.26927368 10.67093384 73.26927368 10.67093384 73.48022461 9.57006836 C74.42416107 5.12804596 75.73887435 2.18918905 79 -1 C81.65220309 -2.09673607 84.14677439 -2.204207 87 -2 C90.62090756 -0.42569236 91.79255284 0.68882926 94 4 C94.57977295 6.03257751 94.57977295 6.03257751 95.04980469 8.39428711 C95.23070145 9.28566879 95.41159821 10.17705048 95.59797668 11.09544373 C95.88205635 12.54673424 95.88205635 12.54673424 96.171875 14.02734375 C96.47643867 15.53972374 96.47643867 15.53972374 96.78715515 17.08265686 C97.44736797 20.36644672 98.09862496 23.65194681 98.75 26.9375 C99.64962567 31.42632876 100.5535309 35.91429352 101.45703125 40.40234375 C101.67798965 41.50339447 101.89894806 42.60444519 102.12660217 43.73886108 C103.82289805 52.17623605 105.59988653 60.59233035 107.4375 69 C109.32634466 77.66080771 111.02778933 86.32161953 112.45703125 95.0703125 C112.84582853 97.92226861 112.84582853 97.92226861 114 100 C114.31453125 99.04480469 114.6290625 98.08960938 114.953125 97.10546875 C116.0692265 93.72426033 117.20394384 90.34952622 118.34179688 86.97558594 C118.9264258 85.22083176 119.48831215 83.45853703 120.046875 81.6953125 C122.97675536 72.83362518 122.97675536 72.83362518 128 70 C133.31713636 68.22762121 139.05484096 68.73472073 144.62353516 68.70483398 C146.12102704 68.69330482 147.61847752 68.67283783 149.11572266 68.64331055 C151.28316068 68.600573 153.44938013 68.5844589 155.6171875 68.57421875 C157.56020752 68.55234497 157.56020752 68.55234497 159.54248047 68.5300293 C163.55359474 69.07524854 165.19104785 70.13884666 168 73 C168.59375 75.25390625 168.59375 75.25390625 168.5 77.5625 C168.48453125 78.70912109 168.48453125 78.70912109 168.46875 79.87890625 C167.89349726 82.48192489 167.08835141 83.37955751 165 85 C161.88856433 86.03714522 159.50531904 86.20031861 156.23828125 86.31640625 C155.12001953 86.35830078 154.00175781 86.40019531 152.84960938 86.44335938 C151.68236328 86.48267578 150.51511719 86.52199219 149.3125 86.5625 C148.13365234 86.60568359 146.95480469 86.64886719 145.74023438 86.69335938 C142.82694117 86.79951176 139.91356243 86.90156242 137 87 C131.09949896 103.47789692 126.71001268 120.47927408 122.73901367 137.51416016 C121.79728308 140.68188426 120.40757011 142.747757 118 145 C115.2201184 146.3899408 113.0813674 146.18488204 110 146 C107.90063477 145.21801758 107.90063477 145.21801758 106 144 C102.77622825 136.28099435 101.31204527 127.96893823 99.5625 119.8125 C99.25228719 118.38378721 98.94206575 116.95507629 98.63183594 115.52636719 C96.66328907 106.40017305 94.88482254 97.25313416 93.27978516 88.05541992 C92.32275945 82.61018368 91.14979556 77.28449483 89.71875 71.94140625 C88.63487562 67.50576817 87.85473091 63.01669611 87.08959961 58.51611328 C86.43064789 54.77596512 85.46300406 51.49435053 84 48 C82.95237194 52.52943923 81.90796958 57.05960757 80.86657715 61.59048462 C80.49789372 63.19377832 80.12867372 64.79694873 79.75891113 66.3999939 C77.91477123 74.4019178 76.08618119 82.39992154 74.49609375 90.45703125 C74.28106201 91.54435547 74.06603027 92.63167969 73.84448242 93.75195312 C73.45897486 95.7366442 73.08473436 97.72356997 72.72387695 99.71289062 C71.47255204 106.15665659 69.71213889 110.28786111 65 115 C62.8359375 115.1953125 62.8359375 115.1953125 60.375 115.125 C59.55773437 115.10695313 58.74046875 115.08890625 57.8984375 115.0703125 C57.27195312 115.04710937 56.64546875 115.02390625 56 115 C55.34 113.68 54.68 112.36 54 111 C53.34 111 52.68 111 52 111 C51.56429687 110.10539062 51.12859375 109.21078125 50.6796875 108.2890625 C50.07835073 107.06759718 49.47677509 105.84624944 48.875 104.625 C48.29492188 103.44164062 47.71484375 102.25828125 47.1171875 101.0390625 C46.77413574 100.41016113 46.43108398 99.78125977 46.07763672 99.13330078 C45 97 45 97 44.08251953 94.33154297 C42.73221725 91.10290974 41.67694591 89.28519773 39 87 C32.98216926 85.18056235 26.3223739 85.74678581 20.125 85.875 C14.14375 85.91625 8.1625 85.9575 2 86 C2 106.46 2 126.92 2 148 C1.34 148 0.68 148 0 148 C0 148.66 0 149.32 0 150 C-3.25471867 151.62735933 -6.80219381 151.22626042 -10.375 151.25 C-11.52742187 151.2809375 -11.52742187 151.2809375 -12.703125 151.3125 C-16.14841928 151.33634287 -18.40009647 151.32171483 -21.4765625 149.671875 C-24.33754339 146.53213187 -24.12714693 143.35585081 -24.13371277 139.31324768 C-24.13797775 138.12850861 -24.14224274 136.94376953 -24.14663696 135.72312927 C-24.14618378 134.42174515 -24.14573059 133.12036102 -24.14526367 131.77954102 C-24.14825552 130.39644276 -24.15165811 129.01334534 -24.15544128 127.63024902 C-24.16428234 123.87200903 -24.16661943 120.1137918 -24.16725707 116.35554242 C-24.1682062 113.21928222 -24.17188451 110.08302733 -24.17542917 106.94676918 C-24.18357395 99.54841305 -24.18601336 92.15006908 -24.18530273 84.75170898 C-24.18470176 77.11670805 -24.19525741 69.48177773 -24.2110464 61.84679466 C-24.22411547 55.29385627 -24.22948691 48.74094098 -24.22884732 42.18798965 C-24.22859217 38.27325105 -24.23145291 34.3585752 -24.24202538 30.44384956 C-24.25169585 26.76257821 -24.25179281 23.08142976 -24.24450874 19.40015411 C-24.24296206 17.4042298 -24.25131678 15.40830554 -24.25994873 13.41239929 C-24.25575424 12.22484039 -24.25155975 11.03728149 -24.24723816 9.81373596 C-24.24778293 8.7815371 -24.24832769 7.74933825 -24.24888897 6.68586063 C-23.99340436 3.92882384 -23.49965578 2.30953394 -22 0 C-15.41479933 -3.99103071 -6.92039944 -2.1853893 0 0 Z " fill="#3D74F9" transform="translate(140,139)"/>
<path d="M0 0 C9.33915706 -0.33960571 17.37592547 1.3522547 24.7265625 7.3515625 C31.57617885 14.12752706 35.59726308 22.36843439 35.98046875 31.9609375 C35.69948104 41.64890519 32.18946479 50.07656571 25.54296875 57.1484375 C21.79249393 59.64875404 19.98440609 59.68447304 15.54296875 59.1484375 C12.60546875 57.1484375 12.60546875 57.1484375 10.54296875 54.1484375 C9.91192225 50.23594917 9.56676619 47.79219034 11.60546875 44.359375 C12.48976402 43.20663295 13.38323186 42.06087666 14.28515625 40.921875 C16.44161454 37.88140275 17.42024683 34.87100244 17.54296875 31.1484375 C16.84756492 28.00442864 15.81494551 25.10270612 14.54296875 22.1484375 C13.88296875 22.1484375 13.22296875 22.1484375 12.54296875 22.1484375 C12.54296875 21.4884375 12.54296875 20.8284375 12.54296875 20.1484375 C6.36273425 18.5692967 1.14852124 17.29711552 -4.80078125 20.11328125 C-8.18335132 22.22738754 -9.92933724 24.3446207 -11.0546875 28.19140625 C-12.10827486 34.13445727 -10.67919776 38.06285715 -7.45703125 43.1484375 C-4.55370218 46.58551864 -1.37995558 49.71594021 1.83203125 52.86328125 C2.73166595 53.75962784 3.63130066 54.65597443 4.55819702 55.57948303 C6.45164996 57.4625518 8.34823901 59.34151223 10.25195312 61.21411133 C12.69293039 63.61526056 15.12278343 66.02728582 17.54874611 68.44359493 C19.86881914 70.75371269 22.19400008 73.0586598 24.51953125 75.36328125 C25.39348541 76.22984848 26.26743958 77.09641571 27.1678772 77.98924255 C28.3795607 79.1816732 28.3795607 79.1816732 29.61572266 80.39819336 C30.32757721 81.1002037 31.03943176 81.80221405 31.77285767 82.52549744 C33.45966846 84.22129609 33.45966846 84.22129609 35.54296875 85.1484375 C35.54296875 85.8084375 35.54296875 86.4684375 35.54296875 87.1484375 C36.20296875 87.1484375 36.86296875 87.1484375 37.54296875 87.1484375 C37.54296875 87.8084375 37.54296875 88.4684375 37.54296875 89.1484375 C38.20296875 89.1484375 38.86296875 89.1484375 39.54296875 89.1484375 C41.05078125 90.609375 41.05078125 90.609375 42.66796875 92.5234375 C43.20679688 93.14992188 43.745625 93.77640625 44.30078125 94.421875 C45.54296875 96.1484375 45.54296875 96.1484375 45.54296875 98.1484375 C46.20296875 98.1484375 46.86296875 98.1484375 47.54296875 98.1484375 C49.10689143 100.24373159 50.52644962 102.31697057 51.91796875 104.5234375 C52.32281494 105.16176514 52.72766113 105.80009277 53.14477539 106.45776367 C62.26021557 121.14610699 65.02585396 137.96901436 61.8203125 154.984375 C58.97840492 164.67217331 54.5951227 174.7447099 47.54296875 182.1484375 C46.88296875 182.1484375 46.22296875 182.1484375 45.54296875 182.1484375 C45.54296875 182.8084375 45.54296875 183.4684375 45.54296875 184.1484375 C42.05752791 187.06032479 38.28664192 189.58105508 34.54296875 192.1484375 C33.95 192.56867188 33.35703125 192.98890625 32.74609375 193.421875 C20.19470703 201.50910871 2.65568761 202.19275595 -11.69628906 199.77050781 C-16.92563429 198.56531719 -21.71103091 196.61591308 -26.45703125 194.1484375 C-26.45703125 193.4884375 -26.45703125 192.8284375 -26.45703125 192.1484375 C-27.33101563 191.97828125 -27.33101563 191.97828125 -28.22265625 191.8046875 C-35.72937668 189.59991647 -41.91739112 182.18519299 -46.45703125 176.1484375 C-46.45703125 175.4884375 -46.45703125 174.8284375 -46.45703125 174.1484375 C-47.11703125 174.1484375 -47.77703125 174.1484375 -48.45703125 174.1484375 C-49.42189705 172.13071499 -50.37861522 170.10909543 -51.33203125 168.0859375 C-51.86570312 166.96058594 -52.399375 165.83523438 -52.94921875 164.67578125 C-59.01417671 150.48755059 -58.88596305 134.05081357 -53.58203125 119.6484375 C-50.76353658 113.22681228 -50.76353658 113.22681228 -47.45703125 111.1484375 C-44.01953125 110.5859375 -44.01953125 110.5859375 -40.45703125 111.1484375 C-37.77786527 113.2451761 -36.05610399 115.02517611 -34.45703125 118.0234375 C-34.45703125 120.74741535 -35.48802125 122.7303036 -36.62109375 125.16796875 C-41.53070359 136.79961449 -39.75456255 148.61994764 -35.45703125 160.1484375 C-29.19716088 171.49099022 -19.83023512 178.35736954 -7.70703125 182.3984375 C2.55543719 184.59896679 11.86850867 182.96254119 21.54296875 179.1484375 C22.53296875 178.4884375 23.52296875 177.8284375 24.54296875 177.1484375 C25.53296875 177.1484375 26.52296875 177.1484375 27.54296875 177.1484375 C27.54296875 176.4884375 27.54296875 175.8284375 27.54296875 175.1484375 C28.71262668 174.10346392 29.93064967 173.1123415 31.16796875 172.1484375 C38.40064046 165.96546328 42.98868353 157.5389107 44.54296875 148.1484375 C45.28323829 138.63803018 44.97241145 129.63032743 40.44140625 121.06640625 C39.54296875 119.1484375 39.54296875 119.1484375 39.54296875 116.1484375 C38.88296875 116.1484375 38.22296875 116.1484375 37.54296875 116.1484375 C33.54296875 110.73667279 33.54296875 110.73667279 33.54296875 108.1484375 C32.88296875 108.1484375 32.22296875 108.1484375 31.54296875 108.1484375 C31.54296875 107.4884375 31.54296875 106.8284375 31.54296875 106.1484375 C30.88296875 106.1484375 30.22296875 106.1484375 29.54296875 106.1484375 C29.54296875 105.4884375 29.54296875 104.8284375 29.54296875 104.1484375 C28.88296875 104.1484375 28.22296875 104.1484375 27.54296875 104.1484375 C26.10864258 102.69506836 26.10864258 102.69506836 24.4375 100.67578125 C20.5739672 96.13345206 16.45708457 91.91405036 12.23046875 87.7109375 C11.51568359 86.99228516 10.80089844 86.27363281 10.06445312 85.53320312 C9.38060547 84.85064453 8.69675781 84.16808594 7.9921875 83.46484375 C7.06925903 82.54360718 7.06925903 82.54360718 6.12768555 81.60375977 C4.58921608 80.05672825 4.58921608 80.05672825 2.54296875 79.1484375 C2.54296875 78.4884375 2.54296875 77.8284375 2.54296875 77.1484375 C1.88296875 77.1484375 1.22296875 77.1484375 0.54296875 77.1484375 C0.54296875 76.4884375 0.54296875 75.8284375 0.54296875 75.1484375 C-0.11703125 75.1484375 -0.77703125 75.1484375 -1.45703125 75.1484375 C-1.45703125 74.4884375 -1.45703125 73.8284375 -1.45703125 73.1484375 C-2.11703125 73.1484375 -2.77703125 73.1484375 -3.45703125 73.1484375 C-3.45703125 72.4884375 -3.45703125 71.8284375 -3.45703125 71.1484375 C-4.11703125 71.1484375 -4.77703125 71.1484375 -5.45703125 71.1484375 C-5.45703125 70.4884375 -5.45703125 69.8284375 -5.45703125 69.1484375 C-6.11703125 69.1484375 -6.77703125 69.1484375 -7.45703125 69.1484375 C-7.45703125 68.4884375 -7.45703125 67.8284375 -7.45703125 67.1484375 C-8.11703125 67.1484375 -8.77703125 67.1484375 -9.45703125 67.1484375 C-9.45703125 66.4884375 -9.45703125 65.8284375 -9.45703125 65.1484375 C-10.05515625 64.8803125 -10.65328125 64.6121875 -11.26953125 64.3359375 C-13.45550979 63.14926344 -14.87035719 62.05244637 -16.45703125 60.1484375 C-16.45703125 59.4884375 -16.45703125 58.8284375 -16.45703125 58.1484375 C-17.11703125 58.1484375 -17.77703125 58.1484375 -18.45703125 58.1484375 C-18.45703125 57.4884375 -18.45703125 56.8284375 -18.45703125 56.1484375 C-19.11703125 56.1484375 -19.77703125 56.1484375 -20.45703125 56.1484375 C-20.45703125 55.4884375 -20.45703125 54.8284375 -20.45703125 54.1484375 C-21.11703125 54.1484375 -21.77703125 54.1484375 -22.45703125 54.1484375 C-23.25534581 52.77728653 -24.04533735 51.40128866 -24.83203125 50.0234375 C-25.27289063 49.25773437 -25.71375 48.49203125 -26.16796875 47.703125 C-30.35237869 39.4103853 -30.9680613 30.11261907 -28.20703125 21.2109375 C-26.74580535 17.45745676 -24.96388899 14.30222627 -22.45703125 11.1484375 C-21.79703125 11.1484375 -21.13703125 11.1484375 -20.45703125 11.1484375 C-20.45703125 10.4884375 -20.45703125 9.8284375 -20.45703125 9.1484375 C-19.79703125 9.1484375 -19.13703125 9.1484375 -18.45703125 9.1484375 C-18.45703125 8.4884375 -18.45703125 7.8284375 -18.45703125 7.1484375 C-12.52160128 2.72619027 -7.3425422 0.44358761 0 0 Z " fill="#3EE7A6" transform="translate(335.45703125,141.8515625)"/>
<path d="M0 0 C9.33915706 -0.33960571 17.37592547 1.3522547 24.7265625 7.3515625 C31.57617885 14.12752706 35.59726308 22.36843439 35.98046875 31.9609375 C35.69948104 41.64890519 32.18946479 50.07656571 25.54296875 57.1484375 C21.79249393 59.64875404 19.98440609 59.68447304 15.54296875 59.1484375 C12.60546875 57.1484375 12.60546875 57.1484375 10.54296875 54.1484375 C9.91192225 50.23594917 9.56676619 47.79219034 11.60546875 44.359375 C12.48976402 43.20663295 13.38323186 42.06087666 14.28515625 40.921875 C16.44161454 37.88140275 17.42024683 34.87100244 17.54296875 31.1484375 C16.84756492 28.00442864 15.81494551 25.10270612 14.54296875 22.1484375 C13.88296875 22.1484375 13.22296875 22.1484375 12.54296875 22.1484375 C12.54296875 21.4884375 12.54296875 20.8284375 12.54296875 20.1484375 C6.36273425 18.5692967 1.14852124 17.29711552 -4.80078125 20.11328125 C-8.18335132 22.22738754 -9.92933724 24.3446207 -11.0546875 28.19140625 C-12.10827486 34.13445727 -10.67919776 38.06285715 -7.45703125 43.1484375 C-4.55370218 46.58551864 -1.37995558 49.71594021 1.83203125 52.86328125 C2.73166595 53.75962784 3.63130066 54.65597443 4.55819702 55.57948303 C6.45164996 57.4625518 8.34823901 59.34151223 10.25195312 61.21411133 C12.69293039 63.61526056 15.12278343 66.02728582 17.54874611 68.44359493 C19.86881914 70.75371269 22.19400008 73.0586598 24.51953125 75.36328125 C25.39348541 76.22984848 26.26743958 77.09641571 27.1678772 77.98924255 C27.9756662 78.78419632 28.7834552 79.57915009 29.61572266 80.39819336 C30.68350449 81.45120888 30.68350449 81.45120888 31.77285767 82.52549744 C33.45966846 84.22129609 33.45966846 84.22129609 35.54296875 85.1484375 C35.54296875 85.8084375 35.54296875 86.4684375 35.54296875 87.1484375 C36.20296875 87.1484375 36.86296875 87.1484375 37.54296875 87.1484375 C37.54296875 87.8084375 37.54296875 88.4684375 37.54296875 89.1484375 C38.20296875 89.4784375 38.86296875 89.8084375 39.54296875 90.1484375 C38.22296875 90.4784375 36.90296875 90.8084375 35.54296875 91.1484375 C35.21296875 90.4884375 34.88296875 89.8284375 34.54296875 89.1484375 C33.03444018 90.24092347 31.53634044 91.34782249 30.04296875 92.4609375 C28.79 93.38326172 28.79 93.38326172 27.51171875 94.32421875 C26.86203125 94.92621094 26.21234375 95.52820313 25.54296875 96.1484375 C25.54296875 97.1384375 25.54296875 98.1284375 25.54296875 99.1484375 C26.20296875 99.1484375 26.86296875 99.1484375 27.54296875 99.1484375 C27.04796875 100.6334375 27.04796875 100.6334375 26.54296875 102.1484375 C25.88699707 101.487229 25.23102539 100.82602051 24.55517578 100.14477539 C22.12325839 97.69582897 19.6891151 95.24913997 17.25341797 92.80395508 C16.19912845 91.74463276 15.14573766 90.68441521 14.09326172 89.62329102 C12.58145018 88.09936789 11.06644973 86.57867966 9.55078125 85.05859375 C8.6395752 84.14215088 7.72836914 83.22570801 6.78955078 82.28149414 C4.73451508 80.12273614 4.73451508 80.12273614 2.54296875 79.1484375 C2.54296875 78.4884375 2.54296875 77.8284375 2.54296875 77.1484375 C1.88296875 77.1484375 1.22296875 77.1484375 0.54296875 77.1484375 C0.54296875 76.4884375 0.54296875 75.8284375 0.54296875 75.1484375 C-0.11703125 75.1484375 -0.77703125 75.1484375 -1.45703125 75.1484375 C-1.45703125 74.4884375 -1.45703125 73.8284375 -1.45703125 73.1484375 C-2.11703125 73.1484375 -2.77703125 73.1484375 -3.45703125 73.1484375 C-3.45703125 72.4884375 -3.45703125 71.8284375 -3.45703125 71.1484375 C-4.11703125 71.1484375 -4.77703125 71.1484375 -5.45703125 71.1484375 C-5.45703125 70.4884375 -5.45703125 69.8284375 -5.45703125 69.1484375 C-6.11703125 69.1484375 -6.77703125 69.1484375 -7.45703125 69.1484375 C-7.45703125 68.4884375 -7.45703125 67.8284375 -7.45703125 67.1484375 C-8.11703125 67.1484375 -8.77703125 67.1484375 -9.45703125 67.1484375 C-9.45703125 66.4884375 -9.45703125 65.8284375 -9.45703125 65.1484375 C-10.05515625 64.8803125 -10.65328125 64.6121875 -11.26953125 64.3359375 C-13.45550979 63.14926344 -14.87035719 62.05244637 -16.45703125 60.1484375 C-16.45703125 59.4884375 -16.45703125 58.8284375 -16.45703125 58.1484375 C-17.11703125 58.1484375 -17.77703125 58.1484375 -18.45703125 58.1484375 C-18.45703125 57.4884375 -18.45703125 56.8284375 -18.45703125 56.1484375 C-19.11703125 56.1484375 -19.77703125 56.1484375 -20.45703125 56.1484375 C-20.45703125 55.4884375 -20.45703125 54.8284375 -20.45703125 54.1484375 C-21.11703125 54.1484375 -21.77703125 54.1484375 -22.45703125 54.1484375 C-23.25534581 52.77728653 -24.04533735 51.40128866 -24.83203125 50.0234375 C-25.49332031 48.87488281 -25.49332031 48.87488281 -26.16796875 47.703125 C-30.35237869 39.4103853 -30.9680613 30.11261907 -28.20703125 21.2109375 C-26.74580535 17.45745676 -24.96388899 14.30222627 -22.45703125 11.1484375 C-21.79703125 11.1484375 -21.13703125 11.1484375 -20.45703125 11.1484375 C-20.45703125 10.4884375 -20.45703125 9.8284375 -20.45703125 9.1484375 C-19.79703125 9.1484375 -19.13703125 9.1484375 -18.45703125 9.1484375 C-18.45703125 8.4884375 -18.45703125 7.8284375 -18.45703125 7.1484375 C-12.52160128 2.72619027 -7.3425422 0.44358761 0 0 Z " fill="#3E76F9" transform="translate(335.45703125,141.8515625)"/>
<path d="M0 0 C2.17578125 1.32421875 2.17578125 1.32421875 4 4 C4.6416074 7.74226402 4.69708451 11.45932638 4.75 15.25 C4.77964844 16.28125 4.80929687 17.3125 4.83984375 18.375 C4.91044778 20.91674495 4.96319009 23.45757783 5 26 C6.98 26.99 8.96 27.98 11 29 C11 29.66 11 30.32 11 31 C11.556875 31.103125 12.11375 31.20625 12.6875 31.3125 C15.47129258 32.14011401 17.59851873 33.37737752 20 35 C21.455276 37.91055201 21.45067148 39.78091798 21 43 C18.375 45.5 18.375 45.5 15 47 C10.23104727 45.85652755 6.14320348 43.57642847 1.9375 41.125 C1.33873047 40.78597656 0.73996094 40.44695312 0.12304688 40.09765625 C-3.5367782 37.98914805 -6.99139569 35.97011739 -10 33 C-10.61523438 29.83959961 -10.61523438 29.83959961 -10.59375 26.15234375 C-10.59379028 25.49923721 -10.59383057 24.84613068 -10.59387207 24.17323303 C-10.58852651 22.79727516 -10.57098403 21.42131709 -10.54199219 20.0456543 C-10.50005568 17.94029527 -10.5009303 15.83812901 -10.5078125 13.73242188 C-10.42857243 3.61698828 -10.42857243 3.61698828 -8.68554688 1.10766602 C-5.78553203 -0.79809403 -3.34872097 -0.41124644 0 0 Z " fill="#42E5A7" transform="translate(340,254)"/>
<path d="M0 0 C1.63885071 1.39985164 3.27678227 2.80079312 4.91015625 4.20703125 C6.34885035 5.44135012 7.79460656 6.66746951 9.24609375 7.88671875 C9.96925781 8.50160156 10.69242187 9.11648437 11.4375 9.75 C12.45650391 10.60851562 12.45650391 10.60851562 13.49609375 11.484375 C15 13 15 13 15 15 C15.66 15 16.32 15 17 15 C17 15.66 17 16.32 17 17 C17.66 17.33 18.32 17.66 19 18 C17.68 18.33 16.36 18.66 15 19 C14.67 18.34 14.34 17.68 14 17 C12.49147143 18.09248597 10.99337169 19.19938499 9.5 20.3125 C8.24703125 21.23482422 8.24703125 21.23482422 6.96875 22.17578125 C6.3190625 22.77777344 5.669375 23.37976563 5 24 C5 24.99 5 25.98 5 27 C5.66 27 6.32 27 7 27 C6.67 27.99 6.34 28.98 6 30 C0.06 24.06 -5.88 18.12 -12 12 C-8.75355952 5.50711904 -6.30246965 3.05087703 0 0 Z " fill="#40A5ED" transform="translate(356,214)"/>
<path d="M0 0 C0.45890625 0.39832031 0.9178125 0.79664063 1.390625 1.20703125 C5.31674827 4.60015709 5.31674827 4.60015709 9.4375 7.75 C9.953125 8.1625 10.46875 8.575 11 9 C11 9.66 11 10.32 11 11 C11.66 11 12.32 11 13 11 C13 11.66 13 12.32 13 13 C13.66 13.33 14.32 13.66 15 14 C13.68 14.33 12.36 14.66 11 15 C10.67 14.34 10.34 13.68 10 13 C8.49147143 14.09248597 6.99337169 15.19938499 5.5 16.3125 C4.6646875 16.92738281 3.829375 17.54226562 2.96875 18.17578125 C2.3190625 18.77777344 1.669375 19.37976563 1 20 C1 20.99 1 21.98 1 23 C1.66 23 2.32 23 3 23 C2.67 23.99 2.34 24.98 2 26 C0.49105554 24.57189185 -1.00692345 23.13218981 -2.5 21.6875 C-3.3353125 20.88699219 -4.170625 20.08648437 -5.03125 19.26171875 C-7 17 -7 17 -7 14 C-4.6875 12.4375 -4.6875 12.4375 -2 11 C-1.01 10.34 -0.02 9.68 1 9 C0.67 8.34 0.34 7.68 0 7 C0.99 7 1.98 7 3 7 C3 6.34 3 5.68 3 5 C2.34 5 1.68 5 1 5 C0.67 3.35 0.34 1.7 0 0 Z " fill="#4FD0C4" transform="translate(360,218)"/>
<path d="M0 0 C0.66 0.66 1.32 1.32 2 2 C2.598125 2.103125 3.19625 2.20625 3.8125 2.3125 C7.09236281 3.34331403 8.76975135 5.45999459 11 8 C11 8.66 11 9.32 11 10 C11.66 10 12.32 10 13 10 C13.33 10.99 13.66 11.98 14 13 C13.34 13 12.68 13 12 13 C11.67 13.99 11.34 14.98 11 16 C10.67 15.34 10.34 14.68 10 14 C9.34 14 8.68 14 8 14 C7.67 12.35 7.34 10.7 7 9 C5.68 9 4.36 9 3 9 C1.68 9 0.36 9 -1 9 C-2.7511573 10.4166747 -2.7511573 10.4166747 -4 12 C-3.690625 12.5775 -3.38125 13.155 -3.0625 13.75 C-2.07416636 15.84294184 -1.4831387 17.74535275 -1 20 C-1.66 20 -2.32 20 -3 20 C-3 19.34 -3 18.68 -3 18 C-3.66 18 -4.32 18 -5 18 C-5 17.34 -5 16.68 -5 16 C-5.66 16 -6.32 16 -7 16 C-7 14.35 -7 12.7 -7 11 C-7.66 11 -8.32 11 -9 11 C-9.33 10.01 -9.66 9.02 -10 8 C-6.7 5.36 -3.4 2.72 0 0 Z " fill="#46E1B3" transform="translate(370,230)"/>
<path d="M0 0 C3.465 1.485 3.465 1.485 7 3 C7 3.66 7 4.32 7 5 C7.556875 5.103125 8.11375 5.20625 8.6875 5.3125 C11.47129258 6.14011401 13.59851873 7.37737752 16 9 C17.455276 11.91055201 17.45067148 13.78091798 17 17 C14.375 19.5 14.375 19.5 11 21 C6.06703493 19.83682926 1.94475168 17.42717062 -2.375 14.875 C-3.01566406 14.50246094 -3.65632813 14.12992187 -4.31640625 13.74609375 C-5.88048477 12.83565998 -7.44065534 11.91851809 -9 11 C-6.26980214 9.93471252 -5.20701188 9.92001814 -2.421875 10.99609375 C-1.09929687 11.70958984 -1.09929687 11.70958984 0.25 12.4375 C1.58804687 13.14712891 1.58804687 13.14712891 2.953125 13.87109375 C3.62859375 14.24363281 4.3040625 14.61617188 5 15 C5 14.01 5 13.02 5 12 C5.66 12 6.32 12 7 12 C7 13.65 7 15.3 7 17 C8.32 17 9.64 17 11 17 C11.33 16.34 11.66 15.68 12 15 C12.99 15 13.98 15 15 15 C15 13.68 15 12.36 15 11 C14.34 11 13.68 11 13 11 C13 10.34 13 9.68 13 9 C11.35 9.33 9.7 9.66 8 10 C7.67 9.01 7.34 8.02 7 7 C5.7934375 6.566875 5.7934375 6.566875 4.5625 6.125 C2 5 2 5 0.6875 2.375 C0.460625 1.59125 0.23375 0.8075 0 0 Z " fill="#56E2AE" transform="translate(344,280)"/>
<path d="M0 0 C6.5220836 -0.23716668 12.53391967 0.45302042 18.54296875 3.1484375 C19.03796875 4.1384375 19.03796875 4.1384375 19.54296875 5.1484375 C18.77855469 4.99246094 18.01414062 4.83648437 17.2265625 4.67578125 C7.92237136 2.98512799 -2.31784916 2.10204347 -11.45703125 5.1484375 C-11.45703125 5.8084375 -11.45703125 6.4684375 -11.45703125 7.1484375 C-12.77703125 7.1484375 -14.09703125 7.1484375 -15.45703125 7.1484375 C-16.5821921 8.98128193 -16.5821921 8.98128193 -17.45703125 11.1484375 C-17.12703125 12.1384375 -16.79703125 13.1284375 -16.45703125 14.1484375 C-20.91203125 15.6334375 -20.91203125 15.6334375 -25.45703125 17.1484375 C-24.46703125 15.1684375 -23.47703125 13.1884375 -22.45703125 11.1484375 C-21.79703125 11.1484375 -21.13703125 11.1484375 -20.45703125 11.1484375 C-20.45703125 10.4884375 -20.45703125 9.8284375 -20.45703125 9.1484375 C-19.79703125 9.1484375 -19.13703125 9.1484375 -18.45703125 9.1484375 C-18.45703125 8.4884375 -18.45703125 7.8284375 -18.45703125 7.1484375 C-12.52160128 2.72619027 -7.3425422 0.44358761 0 0 Z " fill="#547DE4" transform="translate(335.45703125,141.8515625)"/>
<path d="M0 0 C1.98 0.66 3.96 1.32 6 2 C6 2.66 6 3.32 6 4 C7.32 4 8.64 4 10 4 C10 4.66 10 5.32 10 6 C10.66 6 11.32 6 12 6 C12 7.32 12 8.64 12 10 C11.01 10 10.02 10 9 10 C8.67 10.99 8.34 11.98 8 13 C6.68 12.67 5.36 12.34 4 12 C4 10.35 4 8.7 4 7 C3.34 7 2.68 7 2 7 C2 7.99 2 8.98 2 10 C-1.35595828 9.40072174 -3.37801226 8.15377564 -6 6 C-5.67 5.34 -5.34 4.68 -5 4 C-4.01 4.33 -3.02 4.66 -2 5 C-1.34 3.35 -0.68 1.7 0 0 Z " fill="#36E9A5" transform="translate(347,285)"/>
<path d="M0 0 C0.5625 1.9375 0.5625 1.9375 1 4 C0.67 4.33 0.34 4.66 0 5 C0.08963062 6.69141656 0.24577676 8.37959602 0.4375 10.0625 C0.53933594 10.98160156 0.64117187 11.90070313 0.74609375 12.84765625 C0.82988281 13.55792969 0.91367187 14.26820313 1 15 C0.01 15.66 -0.98 16.32 -2 17 C-3.38737953 21.41136843 -3.32754547 26.21740565 -3.5625 30.8125 C-3.60568359 31.60076172 -3.64886719 32.38902344 -3.69335938 33.20117188 C-3.79878321 35.13394215 -3.89983094 37.06695026 -4 39 C-4.33 39 -4.66 39 -5 39 C-6.23596876 24.90327526 -5.98723795 13.13704638 0 0 Z " fill="#64E0B4" transform="translate(284,257)"/>
<path d="M0 0 C1.14926266 0.95421808 2.29430541 1.91352045 3.4375 2.875 C4.39462891 3.67550781 4.39462891 3.67550781 5.37109375 4.4921875 C7 6 7 6 8 8 C7.34 8 6.68 8 6 8 C5.95875 8.7425 5.9175 9.485 5.875 10.25 C4.62828763 14.16823889 2.55758263 15.1165739 -1 17 C-2.32 17 -3.64 17 -5 17 C-5 16.34 -5 15.68 -5 15 C-5.66 14.67 -6.32 14.34 -7 14 C-5.8553125 13.319375 -5.8553125 13.319375 -4.6875 12.625 C-2.76367186 11.46175508 -0.87058776 10.2470585 1 9 C0.67 8.34 0.34 7.68 0 7 C0.99 7 1.98 7 3 7 C3 6.34 3 5.68 3 5 C2.34 5 1.68 5 1 5 C0.67 3.35 0.34 1.7 0 0 Z " fill="#3DC3D8" transform="translate(360,218)"/>
<path d="M0 0 C3.36179774 1.44077046 5.59156268 3.24750021 8 6 C8 6.66 8 7.32 8 8 C8.66 8 9.32 8 10 8 C10.33 8.99 10.66 9.98 11 11 C10.34 11 9.68 11 9 11 C8.67 11.99 8.34 12.98 8 14 C7.67 13.34 7.34 12.68 7 12 C6.34 12 5.68 12 5 12 C4.67 10.35 4.34 8.7 4 7 C2.68 7 1.36 7 0 7 C-0.66 7 -1.32 7 -2 7 C-1.34 4.69 -0.68 2.38 0 0 Z " fill="#3EDDA9" transform="translate(373,232)"/>
<path d="M0 0 C-0.33 1.65 -0.66 3.3 -1 5 C-1.99 5 -2.98 5 -4 5 C-4.33 5.99 -4.66 6.98 -5 8 C-5.66 8 -6.32 8 -7 8 C-7.66 12.62 -8.32 17.24 -9 22 C-9.99 21.67 -10.98 21.34 -12 21 C-10.85077763 13.62078269 -9.50824219 6.30187501 -3.875 1 C-2 0 -2 0 0 0 Z " fill="#6386E8" transform="translate(270,209)"/>
<path d="M0 0 C0.33 0 0.66 0 1 0 C0.51171875 6.0546875 0.51171875 6.0546875 0 8 C-0.99 8.66 -1.98 9.32 -3 10 C-3 11.32 -3 12.64 -3 14 C-2.34 14.66 -1.68 15.32 -1 16 C-1 18 -1 20 -1 22 C-4.875 20.25 -4.875 20.25 -6 18 C-6.5035488 13.04843677 -6.55946651 10.24679181 -3.5625 6.1875 C-3.11003906 5.64480469 -2.65757812 5.10210937 -2.19140625 4.54296875 C-0.78063213 2.89106895 -0.78063213 2.89106895 0 0 Z " fill="#567FEB" transform="translate(352,178)"/>
<path d="M0 0 C0.33 0 0.66 0 1 0 C1 6.6 1 13.2 1 20 C0.34 20 -0.32 20 -1 20 C-1 22.31 -1 24.62 -1 27 C-1.99 27.33 -2.98 27.66 -4 28 C-3.86722656 27.47535156 -3.73445313 26.95070313 -3.59765625 26.41015625 C-2.09603935 19.82277114 -1.62008798 13.3565028 -1.34204102 6.62719727 C-1.09664092 1.09664092 -1.09664092 1.09664092 0 0 Z " fill="#61DEAF" transform="translate(382,272)"/>
<path d="M0 0 C1.32 0 2.64 0 4 0 C4.33 2.31 4.66 4.62 5 7 C4.01 6.67 3.02 6.34 2 6 C2.165 6.515625 2.33 7.03125 2.5 7.5625 C3.15049 10.73363876 3.0620734 13.77218334 3 17 C2.34 17 1.68 17 1 17 C0.63455089 15.10630916 0.28310825 13.20991218 -0.0625 11.3125 C-0.25972656 10.25675781 -0.45695313 9.20101563 -0.66015625 8.11328125 C-0.99034946 5.08840784 -0.77474558 2.92019489 0 0 Z " fill="#4678F0" transform="translate(242,257)"/>
<path d="M0 0 C0.99 0.495 0.99 0.495 2 1 C2 3.31 2 5.62 2 8 C3.32 8.33 4.64 8.66 6 9 C5.67 9.66 5.34 10.32 5 11 C4.92818179 13.71760108 4.90700494 16.40859388 4.9375 19.125 C4.94201172 19.87910156 4.94652344 20.63320312 4.95117188 21.41015625 C4.96296501 23.27347127 4.98090058 25.13674555 5 27 C4.67 27 4.34 27 4 27 C3.69255859 25.31970703 3.69255859 25.31970703 3.37890625 23.60546875 C3.10688311 22.13279176 2.83474151 20.66013664 2.5625 19.1875 C2.42779297 18.44951172 2.29308594 17.71152344 2.15429688 16.95117188 C1.58580263 13.88684924 0.98690349 10.96071047 0 8 C-0.12781786 5.32605036 -0.04391871 2.67904143 0 0 Z " fill="#507AE1" transform="translate(229,200)"/>
<path d="M0 0 C0.66 0 1.32 0 2 0 C5.64514405 8.20157411 4.79520044 17.25697662 1.65625 25.453125 C1.4396875 25.96359375 1.223125 26.4740625 1 27 C0.67 27 0.34 27 0 27 C-0.04241723 24.66705225 -0.04092937 22.33297433 0 20 C0.33 19.67 0.66 19.34 1 19 C1.10022387 16.93951522 1.12966196 14.87541556 1.125 12.8125 C1.12757813 11.68457031 1.13015625 10.55664062 1.1328125 9.39453125 C1.00688006 6.17584633 0.60422627 3.16019928 0 0 Z " fill="#5F86E4" transform="translate(367,162)"/>
<path d="M0 0 C-0.33 0.66 -0.66 1.32 -1 2 C-2.32 2 -3.64 2 -5 2 C-6.12516085 3.83284443 -6.12516085 3.83284443 -7 6 C-6.67 6.99 -6.34 7.98 -6 9 C-10.455 10.485 -10.455 10.485 -15 12 C-14.01 10.02 -13.02 8.04 -12 6 C-11.34 6 -10.68 6 -10 6 C-10 5.34 -10 4.68 -10 4 C-9.34 4 -8.68 4 -8 4 C-8 3.34 -8 2.68 -8 2 C-3.61016949 -1.20338983 -3.61016949 -1.20338983 0 0 Z " fill="#4778EC" transform="translate(325,147)"/>
<path d="M0 0 C0.66 0 1.32 0 2 0 C1.7834375 1.03447266 1.7834375 1.03447266 1.5625 2.08984375 C-0.21197479 11.07312237 -0.31382347 18.96746362 1 28 C0.34 28 -0.32 28 -1 28 C-2.1419701 23.89745104 -2.1838417 19.92015775 -2.1875 15.6875 C-2.19974609 14.95337891 -2.21199219 14.21925781 -2.22460938 13.46289062 C-2.23755942 8.59798996 -1.54283687 4.61631426 0 0 Z " fill="#55DBA9" transform="translate(296,267)"/>
<path d="M0 0 C0.33 0 0.66 0 1 0 C0.28621973 8.13709505 -1.32773882 16.01731928 -3 24 C-3.33 24 -3.66 24 -4 24 C-4.86019486 18.11812707 -5.42851619 13.58558724 -3 8 C-2.45259978 6.54380912 -1.91115002 5.08537052 -1.375 3.625 C-0.694375 1.830625 -0.694375 1.830625 0 0 Z " fill="#5785E5" transform="translate(218,204)"/>
<path d="M0 0 C4.09876505 0.24110383 6.50505661 0.64493192 9.875 3.0625 C12.68705562 6.94975336 12.92178228 9.22871921 13 14 C12.34 14.66 11.68 15.32 11 16 C11 13.03 11 10.06 11 7 C10.34 7 9.68 7 9 7 C9 6.34 9 5.68 9 5 C8.1028125 5.309375 8.1028125 5.309375 7.1875 5.625 C5 6 5 6 2 4 C2 3.34 2 2.68 2 2 C1.34 1.34 0.68 0.68 0 0 Z " fill="#5B85EB" transform="translate(222,137)"/>
<path d="M0 0 C0.66 0 1.32 0 2 0 C1.26309887 6.48472993 -0.35318751 12.69239743 -2 19 C-2.33 19 -2.66 19 -3 19 C-3.34179688 15.97265625 -3.34179688 15.97265625 -3.68359375 12.9453125 C-3.91292961 10.92595684 -3.91292961 10.92595684 -5 9 C-4.67 8.34 -4.34 7.68 -4 7 C-3.34 7 -2.68 7 -2 7 C-1.22227595 4.66682784 -0.57584432 2.38564077 0 0 Z " fill="#4979EE" transform="translate(271,234)"/>
<path d="M0 0 C0.66 0.99 1.32 1.98 2 3 C1.01 4.485 1.01 4.485 0 6 C-0.66 6 -1.32 6 -2 6 C-2.12375 7.134375 -2.2475 8.26875 -2.375 9.4375 C-2.58125 10.613125 -2.7875 11.78875 -3 13 C-3.99 13.495 -3.99 13.495 -5 14 C-5 13.34 -5 12.68 -5 12 C-5.66 12 -6.32 12 -7 12 C-7.33 12.66 -7.66 13.32 -8 14 C-9.32 13.67 -10.64 13.34 -12 13 C-11.20335937 12.34644531 -11.20335937 12.34644531 -10.390625 11.6796875 C-6.12916103 8.08699343 -2.81865152 4.81519634 0 0 Z " fill="#6AE2B6" transform="translate(375,304)"/>
<path d="M0 0 C2.5654594 2.5654594 2.54046087 4.47686668 3 8 C4.32 7.34 5.64 6.68 7 6 C7.12375 6.969375 7.2475 7.93875 7.375 8.9375 C7.58125 9.948125 7.7875 10.95875 8 12 C8.66 12.33 9.32 12.66 10 13 C10 13.99 10 14.98 10 16 C9.34 16 8.68 16 8 16 C8 15.34 8 14.68 8 14 C7.34 14 6.68 14 6 14 C6 13.34 6 12.68 6 12 C5.34 12 4.68 12 4 12 C3.13353333 10.56988027 2.28218171 9.13059381 1.4375 7.6875 C0.72400391 6.48673828 0.72400391 6.48673828 -0.00390625 5.26171875 C-1 3 -1 3 0 0 Z " fill="#5C86E6" transform="translate(309,184)"/>
<path d="M0 0 C3.0625 0.125 3.0625 0.125 5.0625 1.125 C5.6875 3.6875 5.6875 3.6875 6.0625 6.125 C3.0625 6.125 0.0625 6.125 -2.9375 6.125 C-3.31968767 4.46885343 -3.65145102 2.80042976 -3.9375 1.125 C-2.9375 0.125 -2.9375 0.125 0 0 Z " fill="#366CF1" transform="translate(134.9375,137.875)"/>
<path d="M0 0 C0.66 0 1.32 0 2 0 C1.25403037 7.4596963 -0.36746129 14.68951218 -2 22 C-2.33 22 -2.66 22 -3 22 C-3.45755719 14.37404682 -1.74536299 7.3970146 0 0 Z " fill="#6188E3" transform="translate(222,182)"/>
<path d="M0 0 C1.32 1.32 2.64 2.64 4 4 C2.375 6.0625 2.375 6.0625 0 8 C-3.25 7.75 -3.25 7.75 -6 7 C-5.67 5.68 -5.34 4.36 -5 3 C-3.35 2.67 -1.7 2.34 0 2 C0 1.34 0 0.68 0 0 Z " fill="#4888F8" transform="translate(350,208)"/>
<path d="M0 0 C-0.3125 1.875 -0.3125 1.875 -1 4 C-4 6 -4 6 -8 6 C-8 5.34 -8 4.68 -8 4 C-8.66 3.67 -9.32 3.34 -10 3 C-6.48812804 0.59185923 -4.27343092 -0.36629408 0 0 Z " fill="#39C8D0" transform="translate(363,229)"/>
<path d="M0 0 C1.61018109 2.94180765 2.51482011 5.65502446 3.1875 8.9375 C3.36667969 9.77152344 3.54585937 10.60554687 3.73046875 11.46484375 C4.02249715 14.21160365 3.67232639 16.3345358 3 19 C2.67 19 2.34 19 2 19 C1.87882813 18.30132812 1.75765625 17.60265625 1.6328125 16.8828125 C1.46523437 15.97273437 1.29765625 15.06265625 1.125 14.125 C0.96257812 13.22007812 0.80015625 12.31515625 0.6328125 11.3828125 C0.16955297 8.83494012 0.16955297 8.83494012 -2 7 C-1.34 7 -0.68 7 0 7 C0 4.69 0 2.38 0 0 Z " fill="#5C84E6" transform="translate(244,197)"/>
<path d="M0 0 C2.9375 2.5 2.9375 2.5 5 5 C4.01 5.495 4.01 5.495 3 6 C2.67 5.34 2.34 4.68 2 4 C1.01 4 0.02 4 -1 4 C-1 3.34 -1 2.68 -1 2 C-3.97 2.66 -6.94 3.32 -10 4 C-9.67 3.01 -9.34 2.02 -9 1 C-5.86128812 -0.56935594 -3.46144178 -0.35201103 0 0 Z " fill="#7AE0C0" transform="translate(295,253)"/>
<path d="M0 0 C1.485 0.99 1.485 0.99 3 2 C3 2.66 3 3.32 3 4 C3.66 4 4.32 4 5 4 C5.33 4.99 5.66 5.98 6 7 C5.34 7 4.68 7 4 7 C3.67 7.99 3.34 8.98 3 10 C2.67 9.34 2.34 8.68 2 8 C1.34 8 0.68 8 0 8 C-0.98120464 4.94736336 -0.98120464 3.05263664 0 0 Z " fill="#58E2B1" transform="translate(378,236)"/>
<path d="M0 0 C0.99 0.33 1.98 0.66 3 1 C2.25 7.75 2.25 7.75 0 10 C-0.99 7.36 -1.98 4.72 -3 2 C-2.01 1.34 -1.02 0.68 0 0 Z " fill="#5181F3" transform="translate(188,233)"/>
<path d="M0 0 C0.66 0 1.32 0 2 0 C2.33 2.31 2.66 4.62 3 7 C3.99 6.67 4.98 6.34 6 6 C6 8.64 6 11.28 6 14 C2.67016949 11.30442292 1.45548306 7.95059687 0 4 C0 2.68 0 1.36 0 0 Z " fill="#6CE3B7" transform="translate(281,299)"/>
<path d="M0 0 C3.97256398 2.09663099 6.43898489 4.30075595 9 8 C9 8.66 9 9.32 9 10 C7.35 9.67 5.7 9.34 4 9 C3.896875 8.38125 3.79375 7.7625 3.6875 7.125 C3.12474627 4.63473516 3.12474627 4.63473516 0 3 C0 2.01 0 1.02 0 0 Z " fill="#5680E9" transform="translate(357,148)"/>
<path d="M0 0 C0.165 0.639375 0.33 1.27875 0.5 1.9375 C1.781786 4.16119241 1.781786 4.16119241 3.9140625 4.48828125 C5.93575155 4.7275978 7.96841939 4.86893028 10 5 C10 5.66 10 6.32 10 7 C3.12205567 7.31263383 3.12205567 7.31263383 0 5 C-0.8125 2.9375 -0.8125 2.9375 -1 1 C-0.67 0.67 -0.34 0.34 0 0 Z " fill="#5A85E5" transform="translate(246,278)"/>
<path d="M0 0 C0.33 0 0.66 0 1 0 C0.40984815 5.50808397 -0.56663769 10.64878069 -2 16 C-2.33 16 -2.66 16 -3 16 C-3.37851209 10.06997733 -2.10575375 5.52760359 0 0 Z " fill="#5B7FE3" transform="translate(212,232)"/>
<path d="M0 0 C1.32 0.66 2.64 1.32 4 2 C3.67 2.99 3.34 3.98 3 5 C2.34 5 1.68 5 1 5 C0.87625 6.134375 0.7525 7.26875 0.625 8.4375 C0.41875 9.613125 0.2125 10.78875 0 12 C-0.99 12.495 -0.99 12.495 -2 13 C-1.85769192 11.58297487 -1.71099254 10.1663904 -1.5625 8.75 C-1.48128906 7.96109375 -1.40007812 7.1721875 -1.31640625 6.359375 C-1.02365007 4.17635361 -0.57935581 2.1226818 0 0 Z " fill="#6489EC" transform="translate(210,166)"/>
<path d="M0 0 C0.66 0 1.32 0 2 0 C2 0.66 2 1.32 2 2 C2.66 2 3.32 2 4 2 C4 2.66 4 3.32 4 4 C4.99 4 5.98 4 7 4 C7.33 5.32 7.66 6.64 8 8 C8.66 8 9.32 8 10 8 C9.67 8.99 9.34 9.98 9 11 C7.49403892 9.54782324 5.99537896 8.08807139 4.5 6.625 C3.6646875 5.81289062 2.829375 5.00078125 1.96875 4.1640625 C0 2 0 2 0 0 Z " fill="#57CCBC" transform="translate(353,233)"/>
<path d="M0 0 C1.12894876 0.93274109 2.25300876 1.87140122 3.375 2.8125 C4.00148438 3.33457031 4.62796875 3.85664063 5.2734375 4.39453125 C7 6 7 6 9 9 C7.35 8.67 5.7 8.34 4 8 C4 7.34 4 6.68 4 6 C3.01 6 2.02 6 1 6 C0.67 4.02 0.34 2.04 0 0 Z " fill="#507CE9" transform="translate(326,184)"/>
<path d="M0 0 C0.33 0 0.66 0 1 0 C0.51058824 7.34117647 0.51058824 7.34117647 -1.9375 10.5 C-4 12 -4 12 -6 12 C-4.43358249 7.69235185 -2.31663844 3.93828536 0 0 Z " fill="#6B8EE9" transform="translate(352,178)"/>
<path d="M0 0 C0.66 0 1.32 0 2 0 C2 3.3 2 6.6 2 10 C0 8.25 0 8.25 -2 6 C-2 4.68 -2 3.36 -2 2 C-1.34 2 -0.68 2 0 2 C0 1.34 0 0.68 0 0 Z " fill="#356AF1" transform="translate(235,161)"/>
<path d="M0 0 C0.66 0 1.32 0 2 0 C2.375 2.75 2.375 2.75 2 6 C-2.84210526 10 -2.84210526 10 -6 10 C-6 9.34 -6 8.68 -6 8 C-5.38125 7.79375 -4.7625 7.5875 -4.125 7.375 C-1.15346355 5.45224112 -0.86975341 3.33405473 0 0 Z " fill="#6BDAB1" transform="translate(359,291)"/>
<path d="M0 0 C0.99 0 1.98 0 3 0 C3.33 1.32 3.66 2.64 4 4 C5.32 4.33 6.64 4.66 8 5 C8 5.99 8 6.98 8 8 C4.97009905 6.28032649 2.23672704 4.70761694 0 2 C0 1.34 0 0.68 0 0 Z " fill="#63E3B4" transform="translate(295,323)"/>
<path d="M0 0 C0.33 0.99 0.66 1.98 1 3 C-3.455 5.97 -3.455 5.97 -8 9 C-8.66 8.67 -9.32 8.34 -10 8 C-6.7 5.36 -3.4 2.72 0 0 Z " fill="#36DABB" transform="translate(370,230)"/>
<path d="M0 0 C4.24822374 0.47202486 6.19989709 2.96655518 9 6 C8.67 6.99 8.34 7.98 8 9 C6.66368764 7.6905332 5.33102075 6.37734515 4 5.0625 C3.2575 4.33160156 2.515 3.60070312 1.75 2.84765625 C0 1 0 1 0 0 Z " fill="#55A7D5" transform="translate(344,225)"/>
<path d="M0 0 C0.33 0 0.66 0 1 0 C0.67 3.96 0.34 7.92 0 12 C-0.99 11.67 -1.98 11.34 -3 11 C-2.69217504 9.35328588 -2.37860766 7.70764424 -2.0625 6.0625 C-1.88847656 5.14597656 -1.71445312 4.22945312 -1.53515625 3.28515625 C-1 1 -1 1 0 0 Z " fill="#527BE8" transform="translate(261,219)"/>
<path d="M0 0 C3 1 3 1 5 4 C4.625 6.1875 4.625 6.1875 4 8 C2.35 6.68 0.7 5.36 -1 4 C-0.67 2.68 -0.34 1.36 0 0 Z " fill="#4F8BF0" transform="translate(339,216)"/>
<path d="M0 0 C0.66 0.99 1.32 1.98 2 3 C1.375 5.625 1.375 5.625 0 8 C-2.125 8.8125 -2.125 8.8125 -4 9 C-4 8.01 -4 7.02 -4 6 C-3.34 6 -2.68 6 -2 6 C-2 5.34 -2 4.68 -2 4 C-1.34 4 -0.68 4 0 4 C0 2.68 0 1.36 0 0 Z " fill="#3269EE" transform="translate(256,237)"/>
<path d="M0 0 C0.66 0 1.32 0 2 0 C1.44687265 4.02992782 0.8441938 8.02022924 0 12 C-0.33 12 -0.66 12 -1 12 C-2.42857143 3.42857143 -2.42857143 3.42857143 0 0 Z " fill="#587EE4" transform="translate(271,234)"/>
<path d="M0 0 C0.66 0.33 1.32 0.66 2 1 C0.68 3.31 -0.64 5.62 -2 8 C-2.66 8 -3.32 8 -4 8 C-4.1875 5.625 -4.1875 5.625 -4 3 C-3.01 2.34 -2.02 1.68 -1 1 C-0.67 0.67 -0.34 0.34 0 0 Z " fill="#4071ED" transform="translate(261,228)"/>
<path d="M0 0 C1.14926266 0.95421808 2.29430541 1.91352045 3.4375 2.875 C4.07558594 3.40867188 4.71367187 3.94234375 5.37109375 4.4921875 C7 6 7 6 8 8 C6.35 7.67 4.7 7.34 3 7 C3 6.34 3 5.68 3 5 C2.34 5 1.68 5 1 5 C0.67 3.35 0.34 1.7 0 0 Z " fill="#56B1D8" transform="translate(360,218)"/>
<path d="M0 0 C-0.33 0.66 -0.66 1.32 -1 2 C-2.32 2 -3.64 2 -5 2 C-5.33 2.99 -5.66 3.98 -6 5 C-6.99 5.33 -7.98 5.66 -9 6 C-8.8125 4.1875 -8.8125 4.1875 -8 2 C-3.744 -1.248 -3.744 -1.248 0 0 Z " fill="#496FE1" transform="translate(325,147)"/>
<path d="M0 0 C0.66 0 1.32 0 2 0 C1.55123384 1.64846769 1.09069512 3.29373455 0.625 4.9375 C0.36976563 5.85402344 0.11453125 6.77054687 -0.1484375 7.71484375 C-1 10 -1 10 -3 11 C-2.67 8.36 -2.34 5.72 -2 3 C-1.34 3 -0.68 3 0 3 C0 2.01 0 1.02 0 0 Z " fill="#65DFB0" transform="translate(393,301)"/>
<path d="M0 0 C0.99 0.33 1.98 0.66 3 1 C2.34 2.32 1.68 3.64 1 5 C-0.32 4.67 -1.64 4.34 -3 4 C-3 3.34 -3 2.68 -3 2 C-2.01 1.34 -1.02 0.68 0 0 Z " fill="#3CD1C2" transform="translate(360,233)"/>
<path d="M0 0 C1.9375 0.375 1.9375 0.375 4 1 C5.33332095 3.6666419 4.67102033 5.16680303 4 8 C1.84622436 5.37801226 0.59927826 3.35595828 0 0 Z " fill="#5C84EC" transform="translate(179,224)"/>
<path d="M0 0 C1.32 0.33 2.64 0.66 4 1 C4.33 2.32 4.66 3.64 5 5 C4.01 5.33 3.02 5.66 2 6 C0.99983813 3.99967627 0.50603992 2.16874252 0 0 Z " fill="#5581EE" transform="translate(188,212)"/>
<path d="M0 0 C2.31 1.98 4.62 3.96 7 6 C6.01 6.33 5.02 6.66 4 7 C4 6.34 4 5.68 4 5 C3.34 5 2.68 5 2 5 C2 4.34 2 3.68 2 3 C1.01 3 0.02 3 -1 3 C-0.67 2.01 -0.34 1.02 0 0 Z " fill="#5582E4" transform="translate(335,193)"/>
<path d="M0 0 C0.66 0.33 1.32 0.66 2 1 C2 1.99 2 2.98 2 4 C1.34 4 0.68 4 0 4 C-0.33 4.99 -0.66 5.98 -1 7 C-3 4 -3 4 -3 1 C-2.01 0.67 -1.02 0.34 0 0 Z " fill="#366DF4" transform="translate(365,185)"/>
<path d="M0 0 C2.125 0.375 2.125 0.375 4 1 C3.67 1.66 3.34 2.32 3 3 C2.34 3 1.68 3 1 3 C1 3.66 1 4.32 1 5 C0.34 5 -0.32 5 -1 5 C-1.33 4.01 -1.66 3.02 -2 2 C-1.34 1.34 -0.68 0.68 0 0 Z " fill="#5DE3B2" transform="translate(380,321)"/>
<path d="M0 0 C5.53846154 0.61538462 5.53846154 0.61538462 7.875 2.5625 C8.431875 3.2740625 8.431875 3.2740625 9 4 C5.30581799 4 3.22163822 2.71820705 0 1 C0 0.67 0 0.34 0 0 Z " fill="#78E2BC" transform="translate(335,290)"/>
<path d="M0 0 C0.66 0 1.32 0 2 0 C0.75023244 3.65316671 0.32901247 4.78065836 -3 7 C-3 5.35 -3 3.7 -3 2 C-2.34 2 -1.68 2 -1 2 C-0.67 1.34 -0.34 0.68 0 0 Z " fill="#5C85E5" transform="translate(365,189)"/>
<path d="M0 0 C2.5 1.125 2.5 1.125 5 3 C5.3125 6.1875 5.3125 6.1875 5 9 C0.57142857 3.85714286 0.57142857 3.85714286 0 0 Z " fill="#346FF0" transform="translate(353,168)"/>
</svg>
